HIERARCHY
ROOT hip
{
  OFFSET 23.9014 71.0198 11.9034
  CHANNELS 6 Xposition Yposition Zposition Zrotation Xrotation Yrotation
  JOINT abdomen
  {
    OFFSET 0 20.6881 -0.73152
    CHANNELS 3 Zrotation Xrotation Yrotation
    JOINT chest
    {
      OFFSET 0 11.7043 -0.48768
      CHANNELS 3 Zrotation Xrotation Yrotation
      JOINT neck
      {
        OFFSET 0 22.1894 -2.19456
        CHANNELS 3 Zrotation Xrotation Yrotation
        JOINT head
        {
          OFFSET -0.24384 7.07133 1.2192
          CHANNELS 3 Zrotation Xrotation Yrotation
          JOINT leftEye
          {
            OFFSET 4.14528 8.04674 8.04672
            CHANNELS 3 Zrotation Xrotation Yrotation
            End Site
            {
              OFFSET 1 0 0
            }
          }
          JOINT rightEye
          {
            OFFSET -3.6576 8.04674 8.04672
            CHANNELS 3 Zrotation Xrotation Yrotation
            End Site
            {
              OFFSET 1 0 0
            }
          }
        }
      }
      JOINT rCollar
      {
        OFFSET -2.68224 19.2634 -4.8768
        CHANNELS 3 Zrotation Xrotation Yrotation
        JOINT rShldr
        {
          OFFSET -8.77824 -1.95073 1.46304
          CHANNELS 3 Zrotation Xrotation Yrotation
          JOINT rForeArm
          {
            OFFSET -28.1742 -1.7115 0.48768
            CHANNELS 3 Zrotation Xrotation Yrotation
            JOINT rHand
            {
              OFFSET -22.5879 0.773209 7.07136
              CHANNELS 3 Zrotation Xrotation Yrotation
              JOINT rThumb1
              {
                OFFSET -1.2192 -0.487915 3.41376
                CHANNELS 3 Zrotation Xrotation Yrotation
                JOINT rThumb2
                {
                  OFFSET -3.37035 -0.52449 3.41376
                  CHANNELS 3 Zrotation Xrotation Yrotation
                  End Site
                  {
                    OFFSET -1.78271 -1.18214 1.43049
                  }
                }
              }
              JOINT rIndex1
              {
                OFFSET -7.75947 0.938293 5.60832
                CHANNELS 3 Zrotation Xrotation Yrotation
                JOINT rIndex2
                {
                  OFFSET -2.54057 -0.884171 1.56538
                  CHANNELS 3 Zrotation Xrotation Yrotation
                  End Site
                  {
                    OFFSET -1.62519 -0.234802 1.16502
                  }
                }
              }
              JOINT rMid1
              {
                OFFSET -8.24714 1.18213 3.41376
                CHANNELS 3 Zrotation Xrotation Yrotation
                JOINT rMid2
                {
                  OFFSET -3.10165 -0.590103 1.0647
                  CHANNELS 3 Zrotation Xrotation Yrotation
                  End Site
                  {
                    OFFSET -2.48547 -0.328903 0.83742
                  }
                }
              }
              JOINT rRing1
              {
                OFFSET -8.82822 0.546677 1.51678
                CHANNELS 3 Zrotation Xrotation Yrotation
                JOINT rRing2
                {
                  OFFSET -2.60934 -0.819778 -0.0198488
                  CHANNELS 3 Zrotation Xrotation Yrotation
                  End Site
                  {
                    OFFSET -2.33842 -0.294052 0.168128
                  }
                }
              }
              JOINT rPinky1
              {
                OFFSET -8.27202 -0.0477905 -0.4584
                CHANNELS 3 Zrotation Xrotation Yrotation
                JOINT rPinky2
                {
                  OFFSET -1.82734 -0.647385 -0.700984
                  CHANNELS 3 Zrotation Xrotation Yrotation
                  End Site
                  {
                    OFFSET -1.69225 -0.51767 -0.607171
                  }
                }
              }
            }
          }
        }
      }
      JOINT lCollar
      {
        OFFSET 2.68224 19.2634 -4.8768
        CHANNELS 3 Zrotation Xrotation Yrotation
        JOINT lShldr
        {
          OFFSET 8.77824 -1.95073 1.46304
          CHANNELS 3 Zrotation Xrotation Yrotation
          JOINT lForeArm
          {
            OFFSET 28.1742 -1.7115 0.48768
            CHANNELS 3 Zrotation Xrotation Yrotation
            JOINT lHand
            {
              OFFSET 22.5879 0.773209 7.07136
              CHANNELS 3 Zrotation Xrotation Yrotation
              JOINT lThumb1
              {
                OFFSET 1.2192 -0.487915 3.41376
                CHANNELS 3 Zrotation Xrotation Yrotation
                JOINT lThumb2
                {
                  OFFSET 3.37035 -0.52449 3.41376
                  CHANNELS 3 Zrotation Xrotation Yrotation
                  End Site
                  {
                    OFFSET 1.78271 -1.18214 1.43049
                  }
                }
              }
              JOINT lIndex1
              {
                OFFSET 7.75947 0.938293 5.60832
                CHANNELS 3 Zrotation Xrotation Yrotation
                JOINT lIndex2
                {
                  OFFSET 2.54057 -0.884171 1.56538
                  CHANNELS 3 Zrotation Xrotation Yrotation
                  End Site
                  {
                    OFFSET 1.62519 -0.234802 1.16502
                  }
                }
              }
              JOINT lMid1
              {
                OFFSET 8.24714 1.18213 3.41376
                CHANNELS 3 Zrotation Xrotation Yrotation
                JOINT lMid2
                {
                  OFFSET 3.10165 -0.590103 1.0647
                  CHANNELS 3 Zrotation Xrotation Yrotation
                  End Site
                  {
                    OFFSET 2.48547 -0.328903 0.83742
                  }
                }
              }
              JOINT lRing1
              {
                OFFSET 8.82822 0.546677 1.51678
                CHANNELS 3 Zrotation Xrotation Yrotation
                JOINT lRing2
                {
                  OFFSET 2.60934 -0.819778 -0.0198488
                  CHANNELS 3 Zrotation Xrotation Yrotation
                  End Site
                  {
                    OFFSET 2.33842 -0.294052 0.168128
                  }
                }
              }
              JOINT lPinky1
              {
                OFFSET 8.27202 -0.0477905 -0.4584
                CHANNELS 3 Zrotation Xrotation Yrotation
                JOINT lPinky2
                {
                  OFFSET 1.82734 -0.647385 -0.700984
                  CHANNELS 3 Zrotation Xrotation Yrotation
                  End Site
                  {
                    OFFSET 1.69225 -0.51767 -0.607171
                  }
                }
              }
            }
          }
        }
      }
    }
  }
  JOINT rButtock
  {
    OFFSET -8.77824 4.35084 1.2192
    CHANNELS 3 Zrotation Xrotation Yrotation
    JOINT rThigh
    {
      OFFSET 0 -1.70687 -2.19456
      CHANNELS 3 Zrotation Xrotation Yrotation
      JOINT rShin
      {
        OFFSET 0 -36.8199 0.73152
        CHANNELS 3 Zrotation Xrotation Yrotation
        JOINT rFoot
        {
          OFFSET 0.73152 -45.1104 -5.12064
          CHANNELS 3 Zrotation Xrotation Yrotation
          End Site
          {
            OFFSET -1.1221 -3.69964 12.103
          }
        }
      }
    }
  }
  JOINT lButtock
  {
    OFFSET 8.77824 4.35084 1.2192
    CHANNELS 3 Zrotation Xrotation Yrotation
    JOINT lThigh
    {
      OFFSET 0 -1.70687 -2.19456
      CHANNELS 3 Zrotation Xrotation Yrotation
      JOINT lShin
      {
        OFFSET 0 -36.8199 0.73152
        CHANNELS 3 Zrotation Xrotation Yrotation
        JOINT lFoot
        {
          OFFSET -0.73152 -45.1104 -5.12064
          CHANNELS 3 Zrotation Xrotation Yrotation
          End Site
          {
            OFFSET 1.1221 -3.69964 12.103
          }
        }
      }
    }
  }
}
MOTION
Frames:	4
Frame Time:	0.00833333
20.9596 84.6589 28.6282 0.422023 -0.00115498 -0.00720013 -0.555337 -0.00305886 -0.0158854 -0.153307 -0.00476083 -0.026563 -6.38399e-015 -7.95139e-016 6.21201e-018 -1.91548e-014 3.18055e-015 2.32951e-017 -0 0 0 -0 0 0 -3.23174e-015 -1.04828e-017 1.98785e-016 -6.48444e-014 -4.34841e-016 5.96354e-016 -1.1369e-012 3.35946e-013 3.49861e-014 -1.30342e-011 -3.70386e-013 -3.81667e-014 -3.0744e-011 -6.92783e-014 2.22639e-014 -5.31057e-011 -1.145e-013 4.13472e-014 -3.07428e-011 -6.91771e-014 3.18055e-015 7.73091 5.47488 0.417314 -3.07459e-011 -6.9674e-014 1.90833e-014 2.90554 0.965183 0.102902 -3.07453e-011 -6.93758e-014 2.14687e-014 10.2786 0.731801 0.0259123 -3.07524e-011 -6.59965e-014 3.18055e-014 2.22167 -0.733487 -0.20892 -3.32836e-015 -1.12593e-017 -1.98785e-016 -6.83777e-014 -2.48481e-016 -1.19271e-015 -1.14043e-012 -3.4509e-013 0 -1.30391e-011 3.13384e-013 1.90833e-014 -3.07583e-011 -6.81381e-014 2.22639e-014 -5.31101e-011 -1.17681e-013 3.73715e-014 -3.07619e-011 -6.99722e-014 3.18055e-014 -7.73091 5.47488 -0.417314 -3.07569e-011 -6.84813e-014 2.22639e-014 -2.90554 0.965183 -0.102902 -3.07631e-011 -6.83819e-014 2.22639e-014 -10.2786 0.731801 -0.0259123 -3.07502e-011 -6.59965e-014 9.54166e-015 -2.22167 -0.733487 0.20892 -2.03217e-016 0 -3.88251e-019 0.0644167 -2.35905 -0.0223813 -0.00798369 -1.27853 -0.0684583 -0.484705 3.63779 0.128968 2.03217e-016 0 3.88251e-019 -0.910363 -4.50048 0.0764527 0.00202154 2.60027 0.0092743 0.492904 1.9005 -0.0947771 
21.2487 83.3588 23.7638 0.892236 6.07695 -4.52781 0.457616 -7.79746 2.43597 -0.389883 -2.07072 0.579439 3.53499 3.71034 5.03471 0.628553 -5.42356 9.95431 -0 0 0 -0 0 0 -1.86157e-014 -3.3825e-014 1.77206e-014 -6.83593 -5.99282 -3.93896 0.401984 16.8163 -40.4436 0.61043 -17.4878 -2.06392 -2.41484e-010 1.30893e-010 2.75069e-010 -4.2932e-010 2.26499e-010 4.60346e-010 -2.41479e-010 1.30891e-010 2.75053e-010 7.73091 5.47488 0.417314 -2.41485e-010 1.30889e-010 2.75068e-010 2.90554 0.965183 0.102902 -2.41485e-010 1.3089e-010 2.7507e-010 10.2786 0.731801 0.0259123 -2.41493e-010 1.30894e-010 2.75081e-010 2.22167 -0.733487 -0.20892 -1.87597e-014 -3.38278e-014 1.73638e-014 13.8447 -5.72984 -1.12801 4.68564 -2.23071 -7.20486 -0.178037 -9.38393 1.25586 7.94854e-011 1.53402e-011 -2.96084e-010 1.45917e-010 2.72436e-011 -5.10219e-010 7.94817e-011 1.53388e-011 -2.96076e-010 -7.73091 5.47488 -0.417314 7.94868e-011 1.534e-011 -2.96084e-010 -2.90554 0.965183 -0.102902 7.94819e-011 1.534e-011 -2.96088e-010 -10.2786 0.731801 -0.0259123 7.94949e-011 1.53429e-011 -2.961e-010 -2.22167 -0.733487 0.20892 -2.03217e-016 0 -3.88251e-019 -7.52131 -2.8458 0.965011 0.00595379 -0.901269 0.037457 -1.17201 -5.26489 -4.7332 2.03217e-016 0 3.88251e-019 -2.9826 -10.2078 -0.210561 0.00175048 6.19291 -0.0616739 0.78053 -1.39658 3.13204 
21.2362 83.3529 23.7868 2.45272 12.3754 -9.47718 2.27648 -15.9894 5.18051 -0.591049 -4.25435 1.22232 6.56567 7.53388 10.4268 3.32462 -10.5992 20.7539 -0 0 0 -0 0 0 -3.48092e-014 -7.21615e-014 3.32902e-014 -14.9693 -12.2266 -8.2414 16.3521 7.71661 -82.0898 -0.404392 -35.8835 -4.9995 -4.65152e-010 2.78422e-010 5.77654e-010 -8.29207e-010 4.81796e-010 9.67171e-010 -4.65143e-010 2.78419e-010 5.77639e-010 7.73091 5.47488 0.417314 -4.65153e-010 2.78416e-010 5.77654e-010 2.90554 0.965183 0.102902 -4.65153e-010 2.78416e-010 5.77656e-010 10.2786 0.731801 0.0259123 -4.65162e-010 2.78421e-010 5.77667e-010 2.22167 -0.733487 -0.20892 -3.50069e-014 -7.21667e-014 3.29765e-014 28.2316 -11.7809 -2.35596 9.03331 -4.47067 -14.855 0.105005 -19.2762 2.69887 2.10616e-010 3.17273e-011 -6.13775e-010 3.81679e-010 5.63079e-011 -1.05733e-009 2.10612e-010 3.17262e-011 -6.1377e-010 -7.73091 5.47488 -0.417314 2.10618e-010 3.17271e-011 -6.13776e-010 -2.90554 0.965183 -0.102902 2.10614e-010 3.1727e-011 -6.13783e-010 -10.2786 0.731801 -0.0259123 2.10627e-010 3.17305e-011 -6.13794e-010 -2.22167 -0.733487 0.20892 -2.03217e-016 0 -3.88251e-019 -15.5258 -3.35985 2.00917 0.0191675 -0.503069 0.149389 -3.57711 -14.5002 -10.1477 2.03217e-016 0 3.88251e-019 -5.24053 -16.2407 -0.526677 0.0112782 9.98893 -0.137946 1.48829 -4.85243 6.56398 
21.2299 83.3465 23.8323 4.80143 17.7679 -14.1821 4.62786 -23.2078 7.91627 -0.731303 -6.19991 1.80084 8.64442 10.7849 15.35 7.40026 -14.2939 30.7787 -0 0 0 -0 0 0 -4.93837e-014 -1.01454e-013 5.27641e-014 -23.0631 -17.6304 -12.3403 22.3676 -22.6576 -101.236 -3.94308 -52.1011 -9.64221 -6.62964e-010 3.92816e-010 8.25163e-010 -1.18175e-009 6.79727e-010 1.38096e-009 -6.6295e-010 3.92811e-010 8.25151e-010 7.73091 5.47488 0.417314 -6.62964e-010 3.92807e-010 8.25165e-010 2.90554 0.965183 0.102902 -6.62965e-010 3.92808e-010 8.25166e-010 10.2786 0.731801 0.0259123 -6.62974e-010 3.92813e-010 8.25178e-010 2.22167 -0.733487 -0.20892 -4.96224e-014 -1.01461e-013 5.24889e-014 40.8309 -17.1622 -3.52423 12.4098 -6.26977 -21.7347 0.838949 -28.0939 4.21446 2.99973e-010 4.6157e-011 -8.88297e-010 5.43972e-010 8.19662e-011 -1.53073e-009 2.99969e-010 4.61563e-011 -8.88292e-010 -7.73091 5.47488 -0.417314 2.99974e-010 4.61568e-011 -8.88297e-010 -2.90554 0.965183 -0.102902 2.99972e-010 4.61567e-011 -8.88308e-010 -10.2786 0.731801 -0.0259123 2.99985e-010 4.61606e-011 -8.88318e-010 -2.22167 -0.733487 0.20892 -2.03217e-016 0 -3.88251e-019 -22.6424 -3.81548 2.94272 0.0296446 -0.146745 0.24924 -7.31785 -22.3578 -15.5958 2.03217e-016 0 3.88251e-019 -7.30998 -21.6207 -0.83271 0.0285614 13.3781 -0.208119 2.47259 -7.88471 9.67512 
